<mxfile host="app.diagrams.net" modified="2024-06-20T04:40:20.857Z" agent="Mozilla/5.0 (Macintosh; Intel Mac OS X 10_15_7) AppleWebKit/537.36 (KHTML, like Gecko) Chrome/126.0.0.0 Safari/537.36" version="24.5.1" etag="KQ9N4-Uo5TXwv7Ozdkhm" type="github">
  <diagram name="Page-1" id="gO1A43GzSx5pHrBFy3K3">
    <mxGraphModel>
      <root>
        <mxCell id="0" />
        <mxCell id="1" parent="0" />
      </root>
    </mxGraphModel>
  </diagram>
</mxfile>
